<svg width="24" height="29" viewBox="0 0 24 29" fill="none" xmlns="http://www.w3.org/2000/svg">
<path d="M24 10.5647V24.7886C23.999 25.6563 23.6539 26.4881 23.0404 27.1017C22.4268 27.7152 21.595 28.0604 20.7273 28.0613H17.4545V21.5159C17.4545 20.0692 16.8799 18.6818 15.8569 17.6589C14.834 16.636 13.4466 16.0613 12 16.0613C10.5534 16.0613 9.16598 16.636 8.14306 17.6589C7.12013 18.6818 6.54546 20.0692 6.54546 21.5159V28.0613H3.27273C2.40505 28.0604 1.57317 27.7152 0.95962 27.1017C0.346072 26.4881 0.000961713 25.6563 8.82749e-06 24.7886V10.5647C-0.00113431 10.0736 0.108762 9.5887 0.321477 9.14614C0.534192 8.70357 0.84422 8.31483 1.22837 8.00899L10.6364 0.481725C11.0225 0.170014 11.5038 0 12 0C12.4962 0 12.9775 0.170014 13.3636 0.481725L22.7716 8.00899C23.1558 8.31483 23.4658 8.70357 23.6785 9.14614C23.8912 9.5887 24.0011 10.0736 24 10.5647V10.5647Z" fill="white"/>
</svg>
