<svg width="25" height="25" viewBox="0 0 25 25" fill="none" xmlns="http://www.w3.org/2000/svg">
<path d="M24.3513 22.5238L19.6763 17.8625C21.1846 15.9409 22.003 13.5679 22 11.125C22 8.94941 21.3549 6.82267 20.1462 5.01373C18.9375 3.20479 17.2195 1.79489 15.2095 0.96233C13.1995 0.129766 10.9878 -0.0880706 8.85401 0.336367C6.72022 0.760804 4.76021 1.80845 3.22183 3.34683C1.68345 4.88521 0.635804 6.84522 0.211367 8.97901C-0.213071 11.1128 0.00476609 13.3245 0.83733 15.3345C1.66989 17.3445 3.07979 19.0625 4.88873 20.2712C6.69767 21.4799 8.82441 22.125 11 22.125C13.4429 22.128 15.8159 21.3096 17.7375 19.8013L22.3988 24.4763C22.5266 24.6051 22.6787 24.7074 22.8462 24.7772C23.0138 24.847 23.1935 24.883 23.375 24.883C23.5565 24.883 23.7362 24.847 23.9038 24.7772C24.0714 24.7074 24.2234 24.6051 24.3513 24.4763C24.4801 24.3484 24.5824 24.1964 24.6522 24.0288C24.722 23.8612 24.758 23.6815 24.758 23.5C24.758 23.3185 24.722 23.1388 24.6522 22.9712C24.5824 22.8037 24.4801 22.6516 24.3513 22.5238V22.5238ZM2.75 11.125C2.75 9.49331 3.23386 7.89826 4.14038 6.54155C5.0469 5.18485 6.33538 4.12742 7.84287 3.503C9.35036 2.87858 11.0092 2.7152 12.6095 3.03353C14.2098 3.35185 15.6799 4.13759 16.8336 5.29137C17.9874 6.44516 18.7732 7.91517 19.0915 9.51551C19.4098 11.1159 19.2464 12.7747 18.622 14.2821C17.9976 15.7896 16.9402 17.0781 15.5835 17.9846C14.2268 18.8912 12.6317 19.375 11 19.375C8.81197 19.375 6.71355 18.5058 5.16637 16.9586C3.6192 15.4115 2.75 13.313 2.75 11.125Z" fill="white"/>
</svg>
