<svg width="25" height="25" viewBox="0 0 25 25" fill="none" xmlns="http://www.w3.org/2000/svg">
<path d="M24.3513 22.3988L19.6763 17.7375C21.1846 15.8159 22.003 13.4429 22 11C22 8.82441 21.3549 6.69767 20.1462 4.88873C18.9375 3.07979 17.2195 1.66989 15.2095 0.83733C13.1995 0.00476609 10.9878 -0.213071 8.85401 0.211367C6.72022 0.635804 4.76021 1.68345 3.22183 3.22183C1.68345 4.76021 0.635804 6.72022 0.211367 8.85401C-0.213071 10.9878 0.00476609 13.1995 0.83733 15.2095C1.66989 17.2195 3.07979 18.9375 4.88873 20.1462C6.69767 21.3549 8.82441 22 11 22C13.4429 22.003 15.8159 21.1846 17.7375 19.6763L22.3988 24.3513C22.5266 24.4801 22.6787 24.5824 22.8462 24.6522C23.0138 24.722 23.1935 24.758 23.375 24.758C23.5565 24.758 23.7362 24.722 23.9038 24.6522C24.0714 24.5824 24.2234 24.4801 24.3513 24.3513C24.4801 24.2234 24.5824 24.0714 24.6522 23.9038C24.722 23.7362 24.758 23.5565 24.758 23.375C24.758 23.1935 24.722 23.0138 24.6522 22.8462C24.5824 22.6787 24.4801 22.5266 24.3513 22.3988V22.3988ZM2.75 11C2.75 9.36831 3.23386 7.77326 4.14038 6.41655C5.0469 5.05985 6.33538 4.00242 7.84287 3.378C9.35036 2.75358 11.0092 2.5902 12.6095 2.90853C14.2098 3.22685 15.6799 4.01259 16.8336 5.16637C17.9874 6.32016 18.7732 7.79017 19.0915 9.39051C19.4098 10.9909 19.2464 12.6497 18.622 14.1571C17.9976 15.6646 16.9402 16.9531 15.5835 17.8596C14.2268 18.7662 12.6317 19.25 11 19.25C8.81197 19.25 6.71355 18.3808 5.16637 16.8336C3.6192 15.2865 2.75 13.188 2.75 11Z" fill="white"/>
<circle cx="10.5" cy="10.5" r="10.5" fill="white"/>
</svg>
