<svg width="25" height="25" viewBox="0 0 25 25" fill="none" xmlns="http://www.w3.org/2000/svg">
<path d="M6.54704 0C2.93662 0 0 2.93662 0 6.54704V18.453C0 22.0613 2.93662 25 6.54704 25H18.453C20.0405 25 21.4761 24.4097 22.6115 23.466L22.6888 23.4497C22.6867 23.4372 22.6808 23.4256 22.6766 23.4131C24.0849 22.2131 25 20.4467 25 18.453V6.54704C25 2.93662 22.0634 0 18.453 0H6.54704ZM6.54704 2.08333H18.453C20.9134 2.08333 22.9167 4.08454 22.9167 6.54704V18.453C22.9167 19.5196 22.5265 20.4858 21.8994 21.2524C20.2223 17.742 16.6586 15.35 12.6628 15.2791C15.4461 15.1896 17.688 12.9116 17.688 10.1074C17.688 7.247 15.3625 4.91536 12.5 4.91536C9.6375 4.91536 7.31201 7.24492 7.31201 10.1074C7.31201 12.9074 9.54189 15.1812 12.3169 15.2791C8.27523 15.3437 4.75117 17.6866 3.07617 21.2199C2.46367 20.4574 2.08333 19.505 2.08333 18.453V6.54704C2.08333 4.08454 4.08454 2.08333 6.54704 2.08333ZM12.5 6.9987C14.2125 6.9987 15.6047 8.39492 15.6047 10.1074C15.6047 11.8199 14.2125 13.2161 12.5 13.2161C10.7875 13.2161 9.39534 11.8199 9.39534 10.1074C9.39534 8.39284 10.7875 6.9987 12.5 6.9987ZM12.4837 17.3462C15.8983 17.3462 18.9583 19.4631 20.2271 22.5423C19.6812 22.7798 19.0842 22.9167 18.453 22.9167H6.54704C5.90745 22.9167 5.3026 22.7779 4.7526 22.5342C6.01927 19.4279 9.03164 17.3462 12.4837 17.3462Z" fill="white" fill-opacity="0.67"/>
</svg>
