<svg width="24" height="32" viewBox="0 0 24 32" fill="none" xmlns="http://www.w3.org/2000/svg">
<path d="M0.00171585 17.769C0.00171585 13.7875 0.00171585 9.80264 0.00171585 5.82117C0.00504895 2.43007 2.35488 0.0034323 5.64131 0C9.88434 0 14.1307 0 18.3737 0C21.6302 0 23.9933 2.44036 23.9967 5.79715C23.9967 13.8974 23.9967 21.9942 24 30.0944C24 30.5612 23.91 30.9765 23.51 31.2476C23.0134 31.584 22.5534 31.4433 22.1035 31.1172C20.7136 30.1081 19.3203 29.1093 17.9271 28.1036C16.0372 26.7376 14.144 25.375 12.2575 24.002C12.0675 23.8613 11.9342 23.8682 11.7442 24.0055C8.5811 26.2948 5.41133 28.5773 2.24489 30.8598C2.0649 30.9936 1.88825 31.1344 1.69826 31.2476C0.914984 31.7213 0.0217144 31.2167 0.00838204 30.2797C-0.00828343 29.2363 0.00504895 28.1963 0.00504895 27.1529C0.00171585 24.0261 0.00171585 20.8993 0.00171585 17.769Z" fill="white"/>
</svg>
