<svg width="145" height="145" viewBox="0 0 145 145" fill="none" xmlns="http://www.w3.org/2000/svg">
<path d="M145 72.4958C145.001 86.8351 140.749 100.853 132.784 112.776C124.818 124.699 113.495 133.992 100.247 139.48C86.9999 144.968 72.4224 146.404 58.3585 143.607C44.2946 140.81 31.376 133.906 21.2363 123.767C11.0965 113.628 4.19117 100.709 1.3934 86.6456C-1.40436 72.5818 0.0311375 58.0043 5.51837 44.7564C11.0056 31.5085 20.2981 20.1853 32.2208 12.2187C44.1434 4.25215 58.1607 1.42806e-07 72.5 1.19228e-07C82.0207 -0.000545883 91.4482 1.87421 100.244 5.51722C109.04 9.16023 117.033 14.5001 123.765 21.2321C130.497 27.964 135.838 35.956 139.481 44.7519C143.125 53.5478 145 62.9752 145 72.4958ZM64.1142 110.883L117.905 57.1128C118.339 56.6784 118.684 56.1628 118.919 55.5953C119.154 55.0279 119.275 54.4196 119.275 53.8054C119.275 53.1912 119.154 52.5829 118.919 52.0155C118.684 51.448 118.339 50.9324 117.905 50.498L111.29 43.8667C110.856 43.4324 110.34 43.0878 109.773 42.8528C109.205 42.6177 108.597 42.4967 107.983 42.4967C107.369 42.4967 106.76 42.6177 106.193 42.8528C105.626 43.0878 105.11 43.4324 104.676 43.8667L60.8089 87.7334L40.3286 67.2531C39.8943 66.8188 39.3787 66.4742 38.8112 66.2392C38.2437 66.0041 37.6355 65.8831 37.0213 65.8831C36.407 65.8831 35.7988 66.0041 35.2313 66.2392C34.6638 66.4742 34.1482 66.8188 33.7139 67.2531L27.095 73.8637C26.6607 74.298 26.3162 74.8136 26.0811 75.3811C25.846 75.9486 25.7251 76.5568 25.7251 77.171C25.7251 77.7853 25.846 78.3935 26.0811 78.961C26.3162 79.5284 26.6607 80.0441 27.095 80.4784L57.4994 110.883C57.9338 111.317 58.4494 111.662 59.0169 111.897C59.5844 112.132 60.1926 112.253 60.8068 112.253C61.421 112.253 62.0293 112.132 62.5967 111.897C63.1642 111.662 63.6798 111.317 64.1142 110.883Z" fill="white"/>
</svg>
