<svg width="23" height="23" viewBox="0 0 23 23" fill="none" xmlns="http://www.w3.org/2000/svg">
<path d="M21.4667 4.70733H16.8667V2.3C16.8667 1.69 16.6243 1.10499 16.193 0.673654C15.7617 0.242321 15.1767 0 14.5667 0H2.3C1.69 0 1.10499 0.242321 0.673654 0.673654C0.242321 1.10499 0 1.69 0 2.3V20.7C0 21.31 0.242321 21.895 0.673654 22.3263C1.10499 22.7577 1.69 23 2.3 23H14.5667C15.1767 23 15.7617 22.7577 16.193 22.3263C16.6243 21.895 16.8667 21.31 16.8667 20.7V18.2927H21.4667C21.8733 18.2927 22.2633 18.1311 22.5509 17.8436C22.8385 17.556 23 17.166 23 16.7593V6.24067C23 5.834 22.8385 5.44399 22.5509 5.15644C22.2633 4.86888 21.8733 4.70733 21.4667 4.70733ZM21.4667 6.24067V7.774H6.13333V6.24067H21.4667ZM15.3333 20.7C15.3333 20.9033 15.2526 21.0983 15.1088 21.2421C14.965 21.3859 14.77 21.4667 14.5667 21.4667H2.3C2.09667 21.4667 1.90166 21.3859 1.75788 21.2421C1.61411 21.0983 1.53333 20.9033 1.53333 20.7V2.3C1.53333 2.09667 1.61411 1.90166 1.75788 1.75788C1.90166 1.61411 2.09667 1.53333 2.3 1.53333H14.5667C14.77 1.53333 14.965 1.61411 15.1088 1.75788C15.2526 1.90166 15.3333 2.09667 15.3333 2.3V4.70733H6.13333C5.72667 4.70733 5.33666 4.86888 5.0491 5.15644C4.76155 5.44399 4.6 5.834 4.6 6.24067V16.7593C4.6 17.166 4.76155 17.556 5.0491 17.8436C5.33666 18.1311 5.72667 18.2927 6.13333 18.2927H15.3333V20.7ZM16.1 16.7593H6.13333V9.30733H21.4667V16.7593H16.1Z" fill="black"/>
</svg>
