<svg width="98" height="98" viewBox="0 0 98 98" fill="none" xmlns="http://www.w3.org/2000/svg">
<path d="M74.6886 5.09906H12.5397C8.42369 5.09906 5.0835 8.45209 5.0835 12.5757V70.0692C5.0835 74.201 8.42369 77.5459 12.5316 77.5459H74.6804C78.7965 77.5459 82.1285 74.1928 82.1285 70.0692V12.5757C82.1367 8.45209 78.8046 5.09906 74.6886 5.09906Z" stroke="#1E61B8" stroke-width="10" stroke-miterlimit="10"/>
<path d="M19.1387 19.3064H66.1219" stroke="#1E61B8" stroke-width="10" stroke-miterlimit="10" stroke-linecap="round" stroke-linejoin="round"/>
<path d="M69.6662 92.9091C82.5072 92.9091 92.9169 82.4594 92.9169 69.5691C92.9169 56.6787 82.5072 46.229 69.6662 46.229C56.8252 46.229 46.4155 56.6787 46.4155 69.5691C46.4155 82.4594 56.8252 92.9091 69.6662 92.9091Z" fill="white" stroke="#1E61B8" stroke-width="10" stroke-miterlimit="10"/>
<path d="M69.666 59.7231V69.5691L76.1504 76.0784" fill="#1E61B8"/>
<path d="M69.666 59.7231V69.5691L76.1504 76.0784" stroke="#1E61B8" stroke-width="10" stroke-miterlimit="10" stroke-linecap="round" stroke-linejoin="round"/>
</svg>
